<?xml version="1.0" encoding="UTF-8" standalone="no"?>
<!-- Created with Inkscape (http://www.inkscape.org/) -->

<svg
   width="110mm"
   height="107mm"
   viewBox="0 0 110 107"
   version="1.1"
   id="svg525"
   inkscape:version="1.2.1 (9c6d41e410, 2022-07-14)"
   sodipodi:docname="user3.svg"
   xmlns:inkscape="http://www.inkscape.org/namespaces/inkscape"
   xmlns:sodipodi="http://sodipodi.sourceforge.net/DTD/sodipodi-0.dtd"
   xmlns="http://www.w3.org/2000/svg"
   xmlns:svg="http://www.w3.org/2000/svg">
  <sodipodi:namedview
     id="namedview527"
     pagecolor="#ffffff"
     bordercolor="#000000"
     borderopacity="0.25"
     inkscape:showpageshadow="2"
     inkscape:pageopacity="0.0"
     inkscape:pagecheckerboard="0"
     inkscape:deskcolor="#d1d1d1"
     inkscape:document-units="mm"
     showgrid="false"
     inkscape:zoom="1.4788159"
     inkscape:cx="216.72745"
     inkscape:cy="243.0999"
     inkscape:window-width="1920"
     inkscape:window-height="991"
     inkscape:window-x="-9"
     inkscape:window-y="-9"
     inkscape:window-maximized="1"
     inkscape:current-layer="g284" />
  <defs
     id="defs522">
    <clipPath
       clipPathUnits="userSpaceOnUse"
       id="clipPath124">
      <path
         d="m 3957.62,3434.29 c 0,-289.02 -234.3,-523.32 -523.32,-523.32 -289.03,0 -523.33,234.3 -523.33,523.32 0,289.02 234.3,523.32 523.33,523.32 289.02,0 523.32,-234.3 523.32,-523.32"
         id="path122" />
    </clipPath>
    <clipPath
       clipPathUnits="userSpaceOnUse"
       id="clipPath288">
      <path
         d="M 1341,817.672 C 1341,528.648 1106.7,294.34 817.676,294.34 c -289.024,0 -523.324,234.308 -523.324,523.332 0,289.018 234.3,523.318 523.324,523.318 289.024,0 523.324,-234.3 523.324,-523.318"
         id="path286" />
    </clipPath>
  </defs>
  <g
     inkscape:label="Layer 1"
     inkscape:groupmode="layer"
     id="layer1">
    <g
       id="g282"
       transform="matrix(0.09681672,0,0,-0.09681672,-24.058691,133.21134)"
       style="stroke-width:0.364377">
      <g
         id="g284"
         clip-path="url(#clipPath288)"
         style="stroke-width:0.364377">
        <g
           id="g10812"
           transform="matrix(5.6071008,0,0,-5.6071008,-434.95365,2082.0407)"
           style="stroke-width:0.177592;fill:#ffffff">
			<path
   style="fill:#ffffff;stroke-width:0.177592"
   d="m 225.048,322.305 c -53.396,0 -96.837,-43.441 -96.837,-96.839 0,-53.396 43.441,-96.837 96.837,-96.837 53.396,0 96.837,43.441 96.837,96.837 0,53.397 -43.441,96.839 -96.837,96.839 z"
   id="path10808" />

			<path
   style="fill:#ffffff;stroke-width:0.177592"
   d="m 225.048,132.09 c 51.487,0 93.376,41.888 93.376,93.376 0,51.489 -41.889,93.378 -93.376,93.378 -51.487,0 -93.376,-41.889 -93.376,-93.378 0,-51.487 41.889,-93.376 93.376,-93.376 m 0,-6.922 c -55.395,0 -100.298,44.906 -100.298,100.298 0,55.394 44.904,100.301 100.298,100.301 55.394,0 100.299,-44.907 100.299,-100.301 0,-55.393 -44.905,-100.298 -100.299,-100.298 z"
   id="path10810" />

		</g>
        <path
           style="fill:#15274e;stroke-width:0.995779;fill-opacity:1"
           d="m 826.91322,297.96775 c 133.47143,0 255.31938,50.6041 347.47208,133.57798 -2.3606,47.24544 -16.1428,102.44174 -96.9636,143.41281 -52.5891,26.65057 -101.55024,47.25666 -178.72637,55.73459 -24.88993,2.73066 -52.52172,-48.22106 -72.07369,-48.22106 -19.42299,0 -47.08843,50.82837 -72.09048,47.851 C 680.88188,621.54796 634.34855,600.9755 583.59308,574.95854 500.43975,532.34459 482.95683,475.19139 479.3122,431.65226 571.48173,348.61671 693.38011,297.96775 826.91322,297.96775 Z"
           id="path10816" />
        <g
           id="g10848"
           transform="matrix(5.6071008,0,0,-5.6071008,-434.95365,2082.0407)"
           style="stroke-width:0.177592">
		<rect
   x="214.008"
   y="243.944"
   style="fill:#fdcc9b;stroke-width:0.177592"
   width="21.976999"
   height="24.844999"
   id="rect10818" />

		<path
   style="fill:#fac19b;stroke-width:0.177592"
   d="m 214.008,252.879 c 3.743,1.314 7.506,2.023 10.988,2.023 3.406,0 7.186,-0.69 10.988,-1.965 v -8.993 h -21.977 v 8.935 z"
   id="path10820" />

		<path
   style="fill:#fdcc9b;stroke-width:0.177592"
   d="m 266.084,203.759 c 0,9.481 -3.076,18.342 -5.619,25.879 -4.823,14.277 -22.75,23.808 -35.469,23.808 -12.762,0 -29.305,-9.468 -34.738,-23.668 -2.896,-7.566 -6.351,-16.478 -6.351,-26.019 0,-27.441 18.449,-43.877 41.141,-43.877 22.692,0 41.036,16.436 41.036,43.877 z"
   id="path10822" />

		<path
   style="fill:#fdcc9b;stroke-width:0.177592"
   d="m 271.34,207.316 c 0,6.651 -2.352,12.043 -5.256,12.043 -2.902,0 -5.254,-5.392 -5.254,-12.043 0,-6.653 2.351,-12.045 5.254,-12.045 2.903,0 5.256,5.393 5.256,12.045 z"
   id="path10824" />

		<path
   style="fill:#fdcc9b;stroke-width:0.177592"
   d="m 178.652,207.316 c 0,6.651 2.353,12.043 5.255,12.043 2.903,0 5.255,-5.392 5.255,-12.043 0,-6.653 -2.353,-12.045 -5.255,-12.045 -2.902,0 -5.255,5.393 -5.255,12.045 z"
   id="path10826" />

		<path
   style="fill:#080606;stroke-width:0.177592;fill-opacity:1"
   d="m 268.699,166.161 c -4.325,-3.932 -14.072,-2.934 -14.072,-2.934 2.053,-4.9 9.354,-11.617 9.354,-11.617 -9.269,4.324 -23.631,3.796 -29.363,3.371 -3.088,-0.587 -6.307,-0.909 -9.621,-0.909 -22.692,0 -41.089,14.616 -41.089,32.644 0,18.029 1.41,32.644 1.41,32.644 l 11.824,-32.644 c 0,0 15.284,5.351 48.666,4.116 18.74,0 19.18,28.264 19.18,28.264 l 1.097,-32.38 c 0,-6.379 -2.311,-12.325 -6.292,-17.355 3.191,-2.373 8.906,-3.2 8.906,-3.2 z"
   id="path10828" />

		<polygon
   style="fill:#ffffff;stroke-width:0.177592"
   points="224.996,267.44 235.984,279.072 246.128,260.112 235.984,258.281 "
   id="polygon10830" />

		<polygon
   style="fill:#ffffff;stroke-width:0.177592"
   points="224.996,267.44 214.008,279.072 203.912,260.278 214.008,258.281 "
   id="polygon10832" />

		<g
   id="g10838"
   style="stroke-width:0.177592">
			<path
   d="m 245.938,211.913 c 0,2.54 -2.058,4.599 -4.599,4.599 -2.538,0 -4.596,-2.059 -4.596,-4.599 0,-2.539 2.058,-4.598 4.596,-4.598 2.541,0 4.599,2.059 4.599,4.598 z"
   id="path10834"
   style="stroke-width:0.177592" />

			<path
   style="fill:#ffffff;stroke-width:0.177592"
   d="m 244.904,210.783 c 0,0.538 -0.433,0.971 -0.97,0.971 -0.538,0 -0.971,-0.433 -0.971,-0.971 0,-0.538 0.433,-0.971 0.971,-0.971 0.538,-0.001 0.97,0.433 0.97,0.971 z"
   id="path10836" />

		</g>

		<g
   id="g10844"
   style="stroke-width:0.177592">
			<path
   d="m 204.055,211.913 c 0,2.54 2.057,4.599 4.598,4.599 2.54,0 4.597,-2.059 4.597,-4.599 0,-2.539 -2.057,-4.598 -4.597,-4.598 -2.541,0 -4.598,2.059 -4.598,4.598 z"
   id="path10840"
   style="stroke-width:0.177592" />

			<path
   style="fill:#ffffff;stroke-width:0.177592"
   d="m 210.292,210.783 c 0,0.538 0.434,0.971 0.971,0.971 0.538,0 0.971,-0.433 0.971,-0.971 0,-0.538 -0.433,-0.971 -0.971,-0.971 -0.537,-0.001 -0.971,0.433 -0.971,0.971 z"
   id="path10842" />

		</g>

		<path
   style="fill:#faaf7c;stroke-width:0.177592"
   d="m 237.715,233.012 c 0,0 -0.131,0.479 -0.4,1.291 -0.104,0.411 -0.381,0.873 -0.701,1.431 -0.167,0.265 -0.328,0.612 -0.55,0.871 -0.216,0.279 -0.571,0.421 -0.847,0.682 -0.148,0.117 -0.3,0.236 -0.454,0.358 -0.168,0.103 -0.338,0.206 -0.512,0.312 -0.348,0.209 -0.707,0.426 -1.077,0.648 -0.381,0.199 -0.792,0.363 -1.201,0.552 -0.411,0.188 -0.832,0.376 -1.285,0.494 -0.447,0.137 -0.901,0.275 -1.361,0.416 -0.469,0.101 -0.949,0.177 -1.431,0.266 l -0.726,0.128 -0.738,0.046 -0.742,0.043 -0.372,0.021 -0.186,0.011 -0.093,0.005 -0.023,0.002 -0.088,-0.001 -0.043,-0.003 -1.397,-0.083 c -0.235,-0.018 -0.458,-0.019 -0.701,-0.051 l -0.748,-0.13 c -0.494,-0.094 -0.996,-0.163 -1.468,-0.281 -0.459,-0.142 -0.914,-0.281 -1.36,-0.419 -0.454,-0.118 -0.87,-0.32 -1.282,-0.505 -0.408,-0.191 -0.822,-0.35 -1.198,-0.56 -0.724,-0.47 -1.47,-0.818 -2.035,-1.331 -0.272,-0.264 -0.631,-0.404 -0.834,-0.696 -0.221,-0.269 -0.362,-0.596 -0.525,-0.858 -0.308,-0.548 -0.575,-0.999 -0.699,-1.439 -0.289,-0.841 -0.409,-1.3 -0.409,-1.3 0,0 0.387,0.293 1.063,0.806 0.296,0.27 0.768,0.494 1.229,0.784 0.246,0.132 0.462,0.309 0.759,0.418 0.294,0.108 0.459,0.389 0.733,0.564 0.472,0.442 1.129,0.732 1.745,1.144 0.323,0.182 0.687,0.315 1.04,0.482 0.357,0.16 0.716,0.341 1.115,0.439 0.39,0.121 0.787,0.243 1.188,0.368 0.401,0.101 0.807,0.15 1.214,0.233 l 0.615,0.117 c 0.215,0.029 0.458,0.032 0.687,0.049 l 1.397,0.083 1.248,-0.075 0.651,-0.037 0.637,-0.115 c 0.423,-0.077 0.843,-0.154 1.257,-0.23 0.402,-0.124 0.799,-0.246 1.19,-0.366 0.398,-0.1 0.763,-0.266 1.118,-0.431 0.355,-0.164 0.715,-0.303 1.044,-0.475 0.317,-0.192 0.626,-0.379 0.925,-0.56 0.15,-0.09 0.298,-0.179 0.442,-0.265 0.13,-0.105 0.259,-0.208 0.384,-0.309 0.273,-0.177 0.443,-0.453 0.728,-0.571 0.305,-0.108 0.5,-0.268 0.746,-0.394 0.451,-0.277 0.921,-0.482 1.243,-0.776 0.678,-0.522 1.088,-0.803 1.088,-0.803 z"
   id="path10846" />

	</g>
      </g>
    </g>
  </g>
</svg>
